<mxfile host="65bd71144e">
    <diagram id="pwoJAC0_EMqrcB4cgHPU" name="Page-1">
        <mxGraphModel dx="1216" dy="792" grid="1" gridSize="10" guides="1" tooltips="1" connect="1" arrows="1" fold="1" page="1" pageScale="1" pageWidth="827" pageHeight="1169" background="#18141D" math="0" shadow="0">
            <root>
                <mxCell id="0"/>
                <mxCell id="1" parent="0"/>
                <mxCell id="17" style="edgeStyle=none;html=1;exitX=0.5;exitY=1;exitDx=0;exitDy=0;entryX=0.5;entryY=0;entryDx=0;entryDy=0;fontColor=#F0F0F0;labelBackgroundColor=#18141D;strokeColor=#F0F0F0;fillColor=none;" parent="1" source="2" target="4" edge="1">
                    <mxGeometry relative="1" as="geometry"/>
                </mxCell>
                <mxCell id="2" value="" style="ellipse;fillColor=#F0F0F0;fontColor=#F0F0F0;labelBackgroundColor=#18141D;strokeColor=#F0F0F0;" parent="1" vertex="1">
                    <mxGeometry x="399" y="30" width="30" height="30" as="geometry"/>
                </mxCell>
                <mxCell id="3" value="" style="ellipse;html=1;shape=endState;fillColor=#F0F0F0;fontColor=#F0F0F0;labelBackgroundColor=#18141D;strokeColor=#F0F0F0;" parent="1" vertex="1">
                    <mxGeometry x="399" y="870" width="30" height="30" as="geometry"/>
                </mxCell>
                <mxCell id="22" style="edgeStyle=none;html=1;exitX=0.5;exitY=1;exitDx=0;exitDy=0;entryX=0.5;entryY=0;entryDx=0;entryDy=0;fontColor=#F0F0F0;labelBackgroundColor=#18141D;strokeColor=#F0F0F0;fillColor=none;" parent="1" source="4" target="20" edge="1">
                    <mxGeometry relative="1" as="geometry"/>
                </mxCell>
                <mxCell id="4" value="&lt;span id=&quot;docs-internal-guid-f84f0abf-7fff-00dc-f044-2173d04c249d&quot;&gt;&lt;span style=&quot;font-size: 11pt; font-family: Calibri, sans-serif; font-variant-numeric: normal; font-variant-east-asian: normal; vertical-align: baseline;&quot;&gt;Otwiera sekcję odpowiedzialną za generowanie raportu&lt;/span&gt;&lt;/span&gt;" style="rounded=1;whiteSpace=wrap;html=1;fontColor=#F0F0F0;labelBackgroundColor=none;strokeColor=#F0F0F0;fillColor=none;" parent="1" vertex="1">
                    <mxGeometry x="329" y="90" width="170" height="60" as="geometry"/>
                </mxCell>
                <mxCell id="14" style="edgeStyle=none;html=1;exitX=0.5;exitY=1;exitDx=0;exitDy=0;entryX=0.5;entryY=0;entryDx=0;entryDy=0;fontColor=#F0F0F0;labelBackgroundColor=#18141D;strokeColor=#F0F0F0;fillColor=none;" parent="1" source="5" target="9" edge="1">
                    <mxGeometry relative="1" as="geometry"/>
                </mxCell>
                <mxCell id="5" value="&lt;span id=&quot;docs-internal-guid-7aa2e39a-7fff-b6e0-90ae-052378db34d1&quot;&gt;&lt;span style=&quot;font-size: 11pt; font-family: Calibri, sans-serif; font-variant-numeric: normal; font-variant-east-asian: normal; vertical-align: baseline;&quot;&gt;Wprowadza dane i inicjalizuje akcję generowania raportu &lt;/span&gt;&lt;/span&gt;" style="rounded=1;whiteSpace=wrap;html=1;fontColor=#F0F0F0;labelBackgroundColor=none;strokeColor=#F0F0F0;fillColor=none;" parent="1" vertex="1">
                    <mxGeometry x="339" y="300" width="150" height="60" as="geometry"/>
                </mxCell>
                <mxCell id="26" style="edgeStyle=none;html=1;exitX=0.5;exitY=1;exitDx=0;exitDy=0;entryX=0.5;entryY=0;entryDx=0;entryDy=0;fontColor=#F0F0F0;labelBackgroundColor=#18141D;strokeColor=#F0F0F0;fillColor=none;" parent="1" source="6" target="25" edge="1">
                    <mxGeometry relative="1" as="geometry"/>
                </mxCell>
                <mxCell id="6" value="Otrzymuje inforamcje o zatrzymaniu generacjji i prośbę o poprawienie danych" style="rounded=1;whiteSpace=wrap;html=1;fontColor=#F0F0F0;labelBackgroundColor=none;strokeColor=#F0F0F0;fillColor=none;" parent="1" vertex="1">
                    <mxGeometry x="519" y="470" width="120" height="60" as="geometry"/>
                </mxCell>
                <mxCell id="32" style="edgeStyle=none;html=1;exitX=0.5;exitY=1;exitDx=0;exitDy=0;entryX=0;entryY=0.5;entryDx=0;entryDy=0;fontColor=#F0F0F0;labelBackgroundColor=#18141D;strokeColor=#F0F0F0;fillColor=none;" parent="1" source="7" target="8" edge="1">
                    <mxGeometry relative="1" as="geometry">
                        <Array as="points">
                            <mxPoint x="250" y="790"/>
                        </Array>
                    </mxGeometry>
                </mxCell>
                <mxCell id="7" value="&lt;span id=&quot;docs-internal-guid-85010429-7fff-d0a6-6078-f3fec46d210e&quot;&gt;&lt;span style=&quot;font-size: 11pt; font-family: Calibri, sans-serif; font-variant-numeric: normal; font-variant-east-asian: normal; vertical-align: baseline;&quot;&gt;Otrzymuje wygenerowany raport&amp;nbsp;&lt;/span&gt;&lt;/span&gt;" style="rounded=1;whiteSpace=wrap;html=1;fontColor=#F0F0F0;labelBackgroundColor=none;strokeColor=#F0F0F0;fillColor=none;" parent="1" vertex="1">
                    <mxGeometry x="189" y="480" width="120" height="60" as="geometry"/>
                </mxCell>
                <mxCell id="34" style="edgeStyle=none;html=1;exitX=0.5;exitY=1;exitDx=0;exitDy=0;entryX=0.5;entryY=0;entryDx=0;entryDy=0;fontColor=#F0F0F0;labelBackgroundColor=#18141D;strokeColor=#F0F0F0;fillColor=none;" parent="1" source="8" target="3" edge="1">
                    <mxGeometry relative="1" as="geometry"/>
                </mxCell>
                <mxCell id="8" value="Przechodzi do sekcji generacji raportów" style="rounded=1;whiteSpace=wrap;html=1;fontColor=#F0F0F0;labelBackgroundColor=none;strokeColor=#F0F0F0;fillColor=none;" parent="1" vertex="1">
                    <mxGeometry x="354" y="760" width="120" height="60" as="geometry"/>
                </mxCell>
                <mxCell id="11" style="edgeStyle=none;html=1;exitX=1;exitY=0.5;exitDx=0;exitDy=0;entryX=0.5;entryY=0;entryDx=0;entryDy=0;fontColor=#F0F0F0;labelBackgroundColor=#18141D;strokeColor=#F0F0F0;fillColor=none;" parent="1" source="9" target="6" edge="1">
                    <mxGeometry relative="1" as="geometry">
                        <Array as="points">
                            <mxPoint x="579" y="440"/>
                        </Array>
                    </mxGeometry>
                </mxCell>
                <mxCell id="23" value="[Błędne dane]" style="edgeLabel;html=1;align=center;verticalAlign=middle;resizable=0;points=[];fontColor=#F0F0F0;labelBackgroundColor=#18141D;strokeColor=#F0F0F0;fillColor=none;" parent="11" vertex="1" connectable="0">
                    <mxGeometry x="0.0391" y="3" relative="1" as="geometry">
                        <mxPoint x="-13" y="-7" as="offset"/>
                    </mxGeometry>
                </mxCell>
                <mxCell id="12" style="edgeStyle=none;html=1;exitX=0;exitY=0.5;exitDx=0;exitDy=0;entryX=0.5;entryY=0;entryDx=0;entryDy=0;fontColor=#F0F0F0;labelBackgroundColor=#18141D;strokeColor=#F0F0F0;fillColor=none;" parent="1" source="9" target="7" edge="1">
                    <mxGeometry relative="1" as="geometry">
                        <Array as="points">
                            <mxPoint x="249" y="440"/>
                        </Array>
                    </mxGeometry>
                </mxCell>
                <mxCell id="24" value="[Poprawne dane]" style="edgeLabel;html=1;align=center;verticalAlign=middle;resizable=0;points=[];fontColor=#F0F0F0;labelBackgroundColor=#18141D;strokeColor=#F0F0F0;fillColor=none;" parent="12" vertex="1" connectable="0">
                    <mxGeometry x="-0.4696" y="1" relative="1" as="geometry">
                        <mxPoint x="-22" y="-11" as="offset"/>
                    </mxGeometry>
                </mxCell>
                <mxCell id="9" value="" style="rhombus;whiteSpace=wrap;html=1;fontColor=#F0F0F0;labelBackgroundColor=#18141D;strokeColor=#F0F0F0;fillColor=none;" parent="1" vertex="1">
                    <mxGeometry x="389" y="400" width="50" height="80" as="geometry"/>
                </mxCell>
                <mxCell id="21" style="edgeStyle=none;html=1;exitX=0.5;exitY=1;exitDx=0;exitDy=0;entryX=0.5;entryY=0;entryDx=0;entryDy=0;fontColor=#F0F0F0;labelBackgroundColor=#18141D;strokeColor=#F0F0F0;fillColor=none;" parent="1" source="20" target="5" edge="1">
                    <mxGeometry relative="1" as="geometry"/>
                </mxCell>
                <mxCell id="20" value="&lt;span id=&quot;docs-internal-guid-f84f0abf-7fff-00dc-f044-2173d04c249d&quot;&gt;&lt;span style=&quot;font-size: 11pt; font-family: Calibri, sans-serif; font-variant-numeric: normal; font-variant-east-asian: normal; vertical-align: baseline;&quot;&gt;Wybiera odpowiedni raport&lt;/span&gt;&lt;/span&gt;" style="rounded=1;whiteSpace=wrap;html=1;fontColor=#F0F0F0;labelBackgroundColor=#18141D;strokeColor=#F0F0F0;fillColor=none;" parent="1" vertex="1">
                    <mxGeometry x="339" y="190" width="150" height="60" as="geometry"/>
                </mxCell>
                <mxCell id="27" style="edgeStyle=none;html=1;exitX=1;exitY=0.5;exitDx=0;exitDy=0;entryX=1;entryY=0.5;entryDx=0;entryDy=0;fontColor=#F0F0F0;labelBackgroundColor=#18141D;strokeColor=#F0F0F0;fillColor=none;" parent="1" source="25" target="5" edge="1">
                    <mxGeometry relative="1" as="geometry">
                        <Array as="points">
                            <mxPoint x="700" y="620"/>
                            <mxPoint x="700" y="330"/>
                        </Array>
                    </mxGeometry>
                </mxCell>
                <mxCell id="29" value="[poprawenie danych]" style="edgeLabel;html=1;align=center;verticalAlign=middle;resizable=0;points=[];fontColor=#F0F0F0;labelBackgroundColor=#18141D;strokeColor=#F0F0F0;fillColor=none;" parent="27" vertex="1" connectable="0">
                    <mxGeometry x="-0.3283" y="2" relative="1" as="geometry">
                        <mxPoint y="-97" as="offset"/>
                    </mxGeometry>
                </mxCell>
                <mxCell id="30" style="edgeStyle=none;html=1;exitX=0.5;exitY=1;exitDx=0;exitDy=0;entryX=1;entryY=0.5;entryDx=0;entryDy=0;fontColor=#F0F0F0;labelBackgroundColor=#18141D;strokeColor=#F0F0F0;fillColor=none;" parent="1" source="25" target="8" edge="1">
                    <mxGeometry relative="1" as="geometry">
                        <Array as="points">
                            <mxPoint x="580" y="790"/>
                        </Array>
                    </mxGeometry>
                </mxCell>
                <mxCell id="31" value="[rezygnacja z generacji raportu]" style="edgeLabel;html=1;align=center;verticalAlign=middle;resizable=0;points=[];fontColor=#F0F0F0;labelBackgroundColor=#18141D;strokeColor=#F0F0F0;fillColor=none;" parent="30" vertex="1" connectable="0">
                    <mxGeometry x="-0.2763" y="4" relative="1" as="geometry">
                        <mxPoint x="-5" y="-35" as="offset"/>
                    </mxGeometry>
                </mxCell>
                <mxCell id="25" value="" style="rhombus;whiteSpace=wrap;html=1;fontColor=#F0F0F0;labelBackgroundColor=#18141D;strokeColor=#F0F0F0;fillColor=none;" parent="1" vertex="1">
                    <mxGeometry x="555.75" y="580" width="46.5" height="80" as="geometry"/>
                </mxCell>
            </root>
        </mxGraphModel>
    </diagram>
</mxfile>